# xmcd
#
# Track frame offsets: 
#        150
#        18815
#        39505
#        59667
#        82637
#        105415
#        125100
#        144350
#        169335
#        186755
#        208905
#
# Disc length: 2887 seconds
#
# Revision: 5
# Processed by: cddbd v1.5.2PL0 Copyright (c) Steve Scherf et al.
# Submitted via: ExactAudioCopyFreeDBPlugin 1.0
#
DISCID=920b450b
DTITLE=杉本理恵 - Heal Ring
DYEAR=1992
DGENRE=JPop
TTITLE0=恋するミュージュアム
TTITLE1=胸に秘めたDOLL
TTITLE2=悲しくさせないで
TTITLE3=ガラスのラビリンス
TTITLE4=初恋伝説 星が生まれる日
TTITLE5=心の鐘
TTITLE6=ピエロの予感
TTITLE7=夜明けの詩
TTITLE8=迷宮の彼方
TTITLE9=やすらぎのゆびわ
TTITLE10=Heal Ring 理恵のおしゃべり
EXTD=YEAR: 1992
EXTT0=
EXTT1=
EXTT2=
EXTT3=
EXTT4=
EXTT5=
EXTT6=
EXTT7=
EXTT8=
EXTT9=
EXTT10=
PLAYORDER=
